<?xml version="1.0" standalone="no"?>
<!DOCTYPE svg PUBLIC "-//W3C//DTD SVG 1.1//EN"
"http://www.w3.org/Graphics/SVG/1.1/DTD/svg11.dtd"> 
<svg width="12cm" height="12cm" viewBox="0 0 1024 1024"
xmlns="http://www.w3.org/2000/svg" version="1.1"> 
<defs>
<marker id="arrowhead" markerWidth="10" markerHeight="7"
refX="0" refY="3.5" orient="auto">
<polygon points="0 0, 10 3.5, 0 7" stroke="#f00" fill="red"/>
</marker>
</defs>
<line x1="100.000000" y1="100.000000" x2="312.132034" y2="312.132034" stroke="#f00"
stroke-width="3" marker-end="url(#arrowhead)" />
<line x1="100.000000" y1="100.000000" x2="117.599514" y2="117.923514" style="stroke:rgb(0,0,0);stroke-width:3" />  
<line x1="117.599514" y1="117.923514" x2="134.853248" y2="136.185498" style="stroke:rgb(0,0,0);stroke-width:3" />  
<line x1="134.853248" y1="136.185498" x2="151.692602" y2="154.772852" style="stroke:rgb(0,0,0);stroke-width:3" />  
<line x1="151.692602" y1="154.772852" x2="168.128564" y2="173.768574" style="stroke:rgb(0,0,0);stroke-width:3" />  
<line x1="168.128564" y1="173.768574" x2="184.073919" y2="193.156009" style="stroke:rgb(0,0,0);stroke-width:3" />  
<line x1="184.073919" y1="193.156009" x2="199.438780" y2="212.917990" style="stroke:rgb(0,0,0);stroke-width:3" />  
<line x1="199.438780" y1="212.917990" x2="214.196586" y2="233.130346" style="stroke:rgb(0,0,0);stroke-width:3" />  
<line x1="214.196586" y1="233.130346" x2="228.296202" y2="253.864212" style="stroke:rgb(0,0,0);stroke-width:3" />  
<line x1="228.296202" y1="253.864212" x2="241.605320" y2="275.094320" style="stroke:rgb(0,0,0);stroke-width:3" />  
<line x1="241.605320" y1="275.094320" x2="254.035723" y2="296.884723" style="stroke:rgb(0,0,0);stroke-width:3" />  
<line x1="254.035723" y1="296.884723" x2="265.427218" y2="319.204828" style="stroke:rgb(0,0,0);stroke-width:3" />  
<line x1="265.427218" y1="319.204828" x2="275.649884" y2="342.110724" style="stroke:rgb(0,0,0);stroke-width:3" />  
<line x1="275.649884" y1="342.110724" x2="284.511635" y2="365.565725" style="stroke:rgb(0,0,0);stroke-width:3" />  
<line x1="284.511635" y1="365.565725" x2="291.812970" y2="389.531730" style="stroke:rgb(0,0,0);stroke-width:3" />  
<line x1="291.812970" y1="389.531730" x2="297.346971" y2="413.969221" style="stroke:rgb(0,0,0);stroke-width:3" />  
<line x1="297.346971" y1="413.969221" x2="300.891108" y2="438.754798" style="stroke:rgb(0,0,0);stroke-width:3" />  
<line x1="300.891108" y1="438.754798" x2="302.245838" y2="463.769448" style="stroke:rgb(0,0,0);stroke-width:3" />  
<line x1="302.245838" y1="463.769448" x2="301.243795" y2="488.819405" style="stroke:rgb(0,0,0);stroke-width:3" />  
<line x1="301.243795" y1="488.819405" x2="298.945162" y2="513.759997" style="stroke:rgb(0,0,0);stroke-width:3" />  
<line x1="298.945162" y1="513.759997" x2="301.851893" y2="538.531750" style="stroke:rgb(0,0,0);stroke-width:3" />  
<line x1="301.851893" y1="538.531750" x2="312.252638" y2="561.188598" style="stroke:rgb(0,0,0);stroke-width:3" />  
<line x1="312.252638" y1="561.188598" x2="329.337331" y2="579.348043" style="stroke:rgb(0,0,0);stroke-width:3" />  
<line x1="329.337331" y1="579.348043" x2="350.547077" y2="592.618613" style="stroke:rgb(0,0,0);stroke-width:3" />  
<line x1="350.547077" y1="592.618613" x2="373.759873" y2="601.930952" style="stroke:rgb(0,0,0);stroke-width:3" />  
<line x1="373.759873" y1="601.930952" x2="397.990372" y2="608.373674" style="stroke:rgb(0,0,0);stroke-width:3" />  
<line x1="397.990372" y1="608.373674" x2="422.642014" y2="612.690895" style="stroke:rgb(0,0,0);stroke-width:3" />  
<line x1="422.642014" y1="612.690895" x2="447.528998" y2="615.418118" style="stroke:rgb(0,0,0);stroke-width:3" />  
<line x1="447.528998" y1="615.418118" x2="472.534972" y2="616.908531" style="stroke:rgb(0,0,0);stroke-width:3" />  
<line x1="472.534972" y1="616.908531" x2="497.608284" y2="617.408936" style="stroke:rgb(0,0,0);stroke-width:3" />  
<line x1="497.608284" y1="617.408936" x2="522.688147" y2="617.097253" style="stroke:rgb(0,0,0);stroke-width:3" />  
<line x1="522.688147" y1="617.097253" x2="547.805770" y2="616.104678" style="stroke:rgb(0,0,0);stroke-width:3" />  
<line x1="547.805770" y1="616.104678" x2="572.904801" y2="614.533356" style="stroke:rgb(0,0,0);stroke-width:3" />  
<line x1="572.904801" y1="614.533356" x2="597.971519" y2="612.463779" style="stroke:rgb(0,0,0);stroke-width:3" />  
<line x1="597.971519" y1="612.463779" x2="623.030918" y2="609.956775" style="stroke:rgb(0,0,0);stroke-width:3" />  
<line x1="623.030918" y1="609.956775" x2="647.952447" y2="607.078649" style="stroke:rgb(0,0,0);stroke-width:3" />  
<line x1="647.952447" y1="607.078649" x2="672.808688" y2="603.866062" style="stroke:rgb(0,0,0);stroke-width:3" />  
<line x1="672.808688" y1="603.866062" x2="697.703430" y2="600.339826" style="stroke:rgb(0,0,0);stroke-width:3" />  
<line x1="697.703430" y1="600.339826" x2="722.591953" y2="596.938160" style="stroke:rgb(0,0,0);stroke-width:3" />  
<line x1="722.591953" y1="596.938160" x2="747.454871" y2="594.310563" style="stroke:rgb(0,0,0);stroke-width:3" />  
<line x1="747.454871" y1="594.310563" x2="772.460843" y2="592.578828" style="stroke:rgb(0,0,0);stroke-width:3" />  
<line x1="772.460843" y1="592.578828" x2="797.526497" y2="591.932143" style="stroke:rgb(0,0,0);stroke-width:3" />  
<line x1="797.526497" y1="591.932143" x2="822.660594" y2="592.615063" style="stroke:rgb(0,0,0);stroke-width:3" />  
<line x1="822.660594" y1="592.615063" x2="847.612502" y2="594.944312" style="stroke:rgb(0,0,0);stroke-width:3" />  
<line x1="847.612502" y1="594.944312" x2="872.303111" y2="599.357064" style="stroke:rgb(0,0,0);stroke-width:3" />  
<line x1="872.303111" y1="599.357064" x2="896.330911" y2="606.410702" style="stroke:rgb(0,0,0);stroke-width:3" />  
<line x1="896.330911" y1="606.410702" x2="919.112959" y2="616.800954" style="stroke:rgb(0,0,0);stroke-width:3" />  
<line x1="919.112959" y1="616.800954" x2="939.627597" y2="631.181212" style="stroke:rgb(0,0,0);stroke-width:3" />  
<line x1="939.627597" y1="631.181212" x2="956.443654" y2="649.637798" style="stroke:rgb(0,0,0);stroke-width:3" />  
<line x1="956.443654" y1="649.637798" x2="968.569840" y2="671.544775" style="stroke:rgb(0,0,0);stroke-width:3" />  
<line x1="968.569840" y1="671.544775" x2="975.803722" y2="695.549086" style="stroke:rgb(0,0,0);stroke-width:3" />  
<line x1="975.803722" y1="695.549086" x2="978.799450" y2="720.398239" style="stroke:rgb(0,0,0);stroke-width:3" />  
<line x1="978.799450" y1="720.398239" x2="978.480471" y2="745.388110" style="stroke:rgb(0,0,0);stroke-width:3" />  
<line x1="978.480471" y1="745.388110" x2="975.621593" y2="770.304764" style="stroke:rgb(0,0,0);stroke-width:3" />  
<line x1="975.621593" y1="770.304764" x2="970.804381" y2="794.955994" style="stroke:rgb(0,0,0);stroke-width:3" />  
<line x1="970.804381" y1="794.955994" x2="964.461595" y2="819.263058" style="stroke:rgb(0,0,0);stroke-width:3" />  
<line x1="964.461595" y1="819.263058" x2="956.896687" y2="843.245810" style="stroke:rgb(0,0,0);stroke-width:3" />  
<line x1="956.896687" y1="843.245810" x2="948.368152" y2="866.832766" style="stroke:rgb(0,0,0);stroke-width:3" />  
<line x1="948.368152" y1="866.832766" x2="938.996582" y2="890.183210" style="stroke:rgb(0,0,0);stroke-width:3" />  
<line x1="938.996582" y1="890.183210" x2="928.985163" y2="913.142213" style="stroke:rgb(0,0,0);stroke-width:3" />  
<circle cx="100.000000" cy="100.000000" r="7" stroke="none" fill="black" />  
<circle cx="117.599514" cy="117.923514" r="7" stroke="none" fill="black" />  
<circle cx="134.853248" cy="136.185498" r="7" stroke="none" fill="black" />  
<circle cx="151.692602" cy="154.772852" r="7" stroke="none" fill="black" />  
<circle cx="168.128564" cy="173.768574" r="7" stroke="none" fill="black" />  
<circle cx="184.073919" cy="193.156009" r="7" stroke="none" fill="black" />  
<circle cx="199.438780" cy="212.917990" r="7" stroke="none" fill="black" />  
<circle cx="214.196586" cy="233.130346" r="7" stroke="none" fill="black" />  
<circle cx="228.296202" cy="253.864212" r="7" stroke="none" fill="black" />  
<circle cx="241.605320" cy="275.094320" r="7" stroke="none" fill="black" />  
<circle cx="254.035723" cy="296.884723" r="7" stroke="none" fill="black" />  
<circle cx="265.427218" cy="319.204828" r="7" stroke="none" fill="black" />  
<circle cx="275.649884" cy="342.110724" r="7" stroke="none" fill="black" />  
<circle cx="284.511635" cy="365.565725" r="7" stroke="none" fill="black" />  
<circle cx="291.812970" cy="389.531730" r="7" stroke="none" fill="black" />  
<circle cx="297.346971" cy="413.969221" r="7" stroke="none" fill="black" />  
<circle cx="300.891108" cy="438.754798" r="7" stroke="none" fill="black" />  
<circle cx="302.245838" cy="463.769448" r="7" stroke="none" fill="black" />  
<circle cx="301.243795" cy="488.819405" r="7" stroke="none" fill="black" />  
<circle cx="298.945162" cy="513.759997" r="7" stroke="none" fill="black" />  
<circle cx="301.851893" cy="538.531750" r="7" stroke="none" fill="black" />  
<circle cx="312.252638" cy="561.188598" r="7" stroke="none" fill="black" />  
<circle cx="329.337331" cy="579.348043" r="7" stroke="none" fill="black" />  
<circle cx="350.547077" cy="592.618613" r="7" stroke="none" fill="black" />  
<circle cx="373.759873" cy="601.930952" r="7" stroke="none" fill="black" />  
<circle cx="397.990372" cy="608.373674" r="7" stroke="none" fill="black" />  
<circle cx="422.642014" cy="612.690895" r="7" stroke="none" fill="black" />  
<circle cx="447.528998" cy="615.418118" r="7" stroke="none" fill="black" />  
<circle cx="472.534972" cy="616.908531" r="7" stroke="none" fill="black" />  
<circle cx="497.608284" cy="617.408936" r="7" stroke="none" fill="black" />  
<circle cx="522.688147" cy="617.097253" r="7" stroke="none" fill="black" />  
<circle cx="547.805770" cy="616.104678" r="7" stroke="none" fill="black" />  
<circle cx="572.904801" cy="614.533356" r="7" stroke="none" fill="black" />  
<circle cx="597.971519" cy="612.463779" r="7" stroke="none" fill="black" />  
<circle cx="623.030918" cy="609.956775" r="7" stroke="none" fill="black" />  
<circle cx="647.952447" cy="607.078649" r="7" stroke="none" fill="black" />  
<circle cx="672.808688" cy="603.866062" r="7" stroke="none" fill="black" />  
<circle cx="697.703430" cy="600.339826" r="7" stroke="none" fill="black" />  
<circle cx="722.591953" cy="596.938160" r="7" stroke="none" fill="black" />  
<circle cx="747.454871" cy="594.310563" r="7" stroke="none" fill="black" />  
<circle cx="772.460843" cy="592.578828" r="7" stroke="none" fill="black" />  
<circle cx="797.526497" cy="591.932143" r="7" stroke="none" fill="black" />  
<circle cx="822.660594" cy="592.615063" r="7" stroke="none" fill="black" />  
<circle cx="847.612502" cy="594.944312" r="7" stroke="none" fill="black" />  
<circle cx="872.303111" cy="599.357064" r="7" stroke="none" fill="black" />  
<circle cx="896.330911" cy="606.410702" r="7" stroke="none" fill="black" />  
<circle cx="919.112959" cy="616.800954" r="7" stroke="none" fill="black" />  
<circle cx="939.627597" cy="631.181212" r="7" stroke="none" fill="black" />  
<circle cx="956.443654" cy="649.637798" r="7" stroke="none" fill="black" />  
<circle cx="968.569840" cy="671.544775" r="7" stroke="none" fill="black" />  
<circle cx="975.803722" cy="695.549086" r="7" stroke="none" fill="black" />  
<circle cx="978.799450" cy="720.398239" r="7" stroke="none" fill="black" />  
<circle cx="978.480471" cy="745.388110" r="7" stroke="none" fill="black" />  
<circle cx="975.621593" cy="770.304764" r="7" stroke="none" fill="black" />  
<circle cx="970.804381" cy="794.955994" r="7" stroke="none" fill="black" />  
<circle cx="964.461595" cy="819.263058" r="7" stroke="none" fill="black" />  
<circle cx="956.896687" cy="843.245810" r="7" stroke="none" fill="black" />  
<circle cx="948.368152" cy="866.832766" r="7" stroke="none" fill="black" />  
<circle cx="938.996582" cy="890.183210" r="7" stroke="none" fill="black" />  
<circle cx="928.985163" cy="913.142213" r="7" stroke="none" fill="black" />  
</svg>
