<?xml version="1.0" standalone="no"?>
<!DOCTYPE svg PUBLIC "-//W3C//DTD SVG 1.1//EN"
"http://www.w3.org/Graphics/SVG/1.1/DTD/svg11.dtd"> 
<svg width="12cm" height="12cm" viewBox="0 0 1024 1024"
xmlns="http://www.w3.org/2000/svg" version="1.1"> 
<defs>
<marker id="arrowhead" markerWidth="10" markerHeight="7"
refX="0" refY="3.5" orient="auto">
<polygon points="0 0, 10 3.5, 0 7" stroke="#f00" fill="red"/>
</marker>
</defs>
<line x1="100.000000" y1="100.000000" x2="171.477802" y2="391.360471" stroke="#f00"
stroke-width="3" marker-end="url(#arrowhead)" />
<defs>
<marker id="arrowhead" markerWidth="10" markerHeight="7"
refX="0" refY="3.5" orient="auto">
<polygon points="0 0, 10 3.5, 0 7" stroke="#f00" fill="red"/>
</marker>
</defs>
<line x1="914.791641" y1="902.391710" x2="797.328463" y2="626.343884" stroke="#f00"
stroke-width="3" marker-end="url(#arrowhead)" />
<line x1="100.000000" y1="100.000000" x2="105.978525" y2="124.321785" style="stroke:rgb(0,0,0);stroke-width:3" />  
<line x1="105.978525" y1="124.321785" x2="112.038816" y2="148.685627" style="stroke:rgb(0,0,0);stroke-width:3" />  
<line x1="112.038816" y1="148.685627" x2="118.236628" y2="173.020208" style="stroke:rgb(0,0,0);stroke-width:3" />  
<line x1="118.236628" y1="173.020208" x2="124.629226" y2="197.252280" style="stroke:rgb(0,0,0);stroke-width:3" />  
<line x1="124.629226" y1="197.252280" x2="131.305934" y2="221.414232" style="stroke:rgb(0,0,0);stroke-width:3" />  
<line x1="131.305934" y1="221.414232" x2="138.331327" y2="245.423462" style="stroke:rgb(0,0,0);stroke-width:3" />  
<line x1="138.331327" y1="245.423462" x2="145.806842" y2="269.296870" style="stroke:rgb(0,0,0);stroke-width:3" />  
<line x1="145.806842" y1="269.296870" x2="153.845187" y2="293.036930" style="stroke:rgb(0,0,0);stroke-width:3" />  
<line x1="153.845187" y1="293.036930" x2="162.535526" y2="316.529594" style="stroke:rgb(0,0,0);stroke-width:3" />  
<line x1="162.535526" y1="316.529594" x2="172.014999" y2="339.746084" style="stroke:rgb(0,0,0);stroke-width:3" />  
<line x1="172.014999" y1="339.746084" x2="182.396748" y2="362.541680" style="stroke:rgb(0,0,0);stroke-width:3" />  
<line x1="182.396748" y1="362.541680" x2="193.851250" y2="384.844964" style="stroke:rgb(0,0,0);stroke-width:3" />  
<line x1="193.851250" y1="384.844964" x2="206.523984" y2="406.469849" style="stroke:rgb(0,0,0);stroke-width:3" />  
<line x1="206.523984" y1="406.469849" x2="220.574160" y2="427.212686" style="stroke:rgb(0,0,0);stroke-width:3" />  
<line x1="220.574160" y1="427.212686" x2="236.175441" y2="446.851336" style="stroke:rgb(0,0,0);stroke-width:3" />  
<line x1="236.175441" y1="446.851336" x2="253.385699" y2="465.018477" style="stroke:rgb(0,0,0);stroke-width:3" />  
<line x1="253.385699" y1="465.018477" x2="272.303877" y2="481.440900" style="stroke:rgb(0,0,0);stroke-width:3" />  
<line x1="272.303877" y1="481.440900" x2="292.859968" y2="495.768215" style="stroke:rgb(0,0,0);stroke-width:3" />  
<line x1="292.859968" y1="495.768215" x2="314.813524" y2="507.721994" style="stroke:rgb(0,0,0);stroke-width:3" />  
<line x1="314.813524" y1="507.721994" x2="337.909477" y2="517.489161" style="stroke:rgb(0,0,0);stroke-width:3" />  
<line x1="337.909477" y1="517.489161" x2="361.677214" y2="525.388815" style="stroke:rgb(0,0,0);stroke-width:3" />  
<line x1="361.677214" y1="525.388815" x2="385.929581" y2="531.816051" style="stroke:rgb(0,0,0);stroke-width:3" />  
<line x1="385.929581" y1="531.816051" x2="410.423316" y2="537.089685" style="stroke:rgb(0,0,0);stroke-width:3" />  
<line x1="410.423316" y1="537.089685" x2="435.042972" y2="541.511012" style="stroke:rgb(0,0,0);stroke-width:3" />  
<line x1="435.042972" y1="541.511012" x2="459.807088" y2="545.357137" style="stroke:rgb(0,0,0);stroke-width:3" />  
<line x1="459.807088" y1="545.357137" x2="484.656344" y2="548.858057" style="stroke:rgb(0,0,0);stroke-width:3" />  
<line x1="484.656344" y1="548.858057" x2="509.439126" y2="552.214336" style="stroke:rgb(0,0,0);stroke-width:3" />  
<line x1="509.439126" y1="552.214336" x2="534.219840" y2="555.646611" style="stroke:rgb(0,0,0);stroke-width:3" />  
<line x1="534.219840" y1="555.646611" x2="558.959387" y2="559.361638" style="stroke:rgb(0,0,0);stroke-width:3" />  
<line x1="558.959387" y1="559.361638" x2="583.612569" y2="563.575563" style="stroke:rgb(0,0,0);stroke-width:3" />  
<line x1="583.612569" y1="563.575563" x2="608.121840" y2="568.522280" style="stroke:rgb(0,0,0);stroke-width:3" />  
<line x1="608.121840" y1="568.522280" x2="632.410708" y2="574.462279" style="stroke:rgb(0,0,0);stroke-width:3" />  
<line x1="632.410708" y1="574.462279" x2="656.376572" y2="581.692246" style="stroke:rgb(0,0,0);stroke-width:3" />  
<line x1="656.376572" y1="581.692246" x2="679.793966" y2="590.518150" style="stroke:rgb(0,0,0);stroke-width:3" />  
<line x1="679.793966" y1="590.518150" x2="702.415505" y2="601.275321" style="stroke:rgb(0,0,0);stroke-width:3" />  
<line x1="702.415505" y1="601.275321" x2="723.882835" y2="614.132239" style="stroke:rgb(0,0,0);stroke-width:3" />  
<line x1="723.882835" y1="614.132239" x2="744.066197" y2="628.945377" style="stroke:rgb(0,0,0);stroke-width:3" />  
<line x1="744.066197" y1="628.945377" x2="762.912827" y2="645.465004" style="stroke:rgb(0,0,0);stroke-width:3" />  
<line x1="762.912827" y1="645.465004" x2="780.405679" y2="663.391476" style="stroke:rgb(0,0,0);stroke-width:3" />  
<line x1="780.405679" y1="663.391476" x2="796.616448" y2="682.462855" style="stroke:rgb(0,0,0);stroke-width:3" />  
<line x1="796.616448" y1="682.462855" x2="811.680941" y2="702.489336" style="stroke:rgb(0,0,0);stroke-width:3" />  
<line x1="811.680941" y1="702.489336" x2="825.671218" y2="723.208473" style="stroke:rgb(0,0,0);stroke-width:3" />  
<line x1="825.671218" y1="723.208473" x2="838.765275" y2="744.533234" style="stroke:rgb(0,0,0);stroke-width:3" />  
<line x1="838.765275" y1="744.533234" x2="851.071817" y2="766.311689" style="stroke:rgb(0,0,0);stroke-width:3" />  
<line x1="851.071817" y1="766.311689" x2="862.739681" y2="788.497561" style="stroke:rgb(0,0,0);stroke-width:3" />  
<line x1="862.739681" y1="788.497561" x2="873.857251" y2="810.967321" style="stroke:rgb(0,0,0);stroke-width:3" />  
<line x1="873.857251" y1="810.967321" x2="884.507378" y2="833.605178" style="stroke:rgb(0,0,0);stroke-width:3" />  
<line x1="884.507378" y1="833.605178" x2="894.811895" y2="856.402591" style="stroke:rgb(0,0,0);stroke-width:3" />  
<line x1="894.811895" y1="856.402591" x2="904.884748" y2="879.362045" style="stroke:rgb(0,0,0);stroke-width:3" />  
<line x1="904.884748" y1="879.362045" x2="914.791641" y2="902.391710" style="stroke:rgb(0,0,0);stroke-width:3" />  
<circle cx="100.000000" cy="100.000000" r="7" stroke="none" fill="black" />  
<circle cx="105.978525" cy="124.321785" r="7" stroke="none" fill="black" />  
<circle cx="112.038816" cy="148.685627" r="7" stroke="none" fill="black" />  
<circle cx="118.236628" cy="173.020208" r="7" stroke="none" fill="black" />  
<circle cx="124.629226" cy="197.252280" r="7" stroke="none" fill="black" />  
<circle cx="131.305934" cy="221.414232" r="7" stroke="none" fill="black" />  
<circle cx="138.331327" cy="245.423462" r="7" stroke="none" fill="black" />  
<circle cx="145.806842" cy="269.296870" r="7" stroke="none" fill="black" />  
<circle cx="153.845187" cy="293.036930" r="7" stroke="none" fill="black" />  
<circle cx="162.535526" cy="316.529594" r="7" stroke="none" fill="black" />  
<circle cx="172.014999" cy="339.746084" r="7" stroke="none" fill="black" />  
<circle cx="182.396748" cy="362.541680" r="7" stroke="none" fill="black" />  
<circle cx="193.851250" cy="384.844964" r="7" stroke="none" fill="black" />  
<circle cx="206.523984" cy="406.469849" r="7" stroke="none" fill="black" />  
<circle cx="220.574160" cy="427.212686" r="7" stroke="none" fill="black" />  
<circle cx="236.175441" cy="446.851336" r="7" stroke="none" fill="black" />  
<circle cx="253.385699" cy="465.018477" r="7" stroke="none" fill="black" />  
<circle cx="272.303877" cy="481.440900" r="7" stroke="none" fill="black" />  
<circle cx="292.859968" cy="495.768215" r="7" stroke="none" fill="black" />  
<circle cx="314.813524" cy="507.721994" r="7" stroke="none" fill="black" />  
<circle cx="337.909477" cy="517.489161" r="7" stroke="none" fill="black" />  
<circle cx="361.677214" cy="525.388815" r="7" stroke="none" fill="black" />  
<circle cx="385.929581" cy="531.816051" r="7" stroke="none" fill="black" />  
<circle cx="410.423316" cy="537.089685" r="7" stroke="none" fill="black" />  
<circle cx="435.042972" cy="541.511012" r="7" stroke="none" fill="black" />  
<circle cx="459.807088" cy="545.357137" r="7" stroke="none" fill="black" />  
<circle cx="484.656344" cy="548.858057" r="7" stroke="none" fill="black" />  
<circle cx="509.439126" cy="552.214336" r="7" stroke="none" fill="black" />  
<circle cx="534.219840" cy="555.646611" r="7" stroke="none" fill="black" />  
<circle cx="558.959387" cy="559.361638" r="7" stroke="none" fill="black" />  
<circle cx="583.612569" cy="563.575563" r="7" stroke="none" fill="black" />  
<circle cx="608.121840" cy="568.522280" r="7" stroke="none" fill="black" />  
<circle cx="632.410708" cy="574.462279" r="7" stroke="none" fill="black" />  
<circle cx="656.376572" cy="581.692246" r="7" stroke="none" fill="black" />  
<circle cx="679.793966" cy="590.518150" r="7" stroke="none" fill="black" />  
<circle cx="702.415505" cy="601.275321" r="7" stroke="none" fill="black" />  
<circle cx="723.882835" cy="614.132239" r="7" stroke="none" fill="black" />  
<circle cx="744.066197" cy="628.945377" r="7" stroke="none" fill="black" />  
<circle cx="762.912827" cy="645.465004" r="7" stroke="none" fill="black" />  
<circle cx="780.405679" cy="663.391476" r="7" stroke="none" fill="black" />  
<circle cx="796.616448" cy="682.462855" r="7" stroke="none" fill="black" />  
<circle cx="811.680941" cy="702.489336" r="7" stroke="none" fill="black" />  
<circle cx="825.671218" cy="723.208473" r="7" stroke="none" fill="black" />  
<circle cx="838.765275" cy="744.533234" r="7" stroke="none" fill="black" />  
<circle cx="851.071817" cy="766.311689" r="7" stroke="none" fill="black" />  
<circle cx="862.739681" cy="788.497561" r="7" stroke="none" fill="black" />  
<circle cx="873.857251" cy="810.967321" r="7" stroke="none" fill="black" />  
<circle cx="884.507378" cy="833.605178" r="7" stroke="none" fill="black" />  
<circle cx="894.811895" cy="856.402591" r="7" stroke="none" fill="black" />  
<circle cx="904.884748" cy="879.362045" r="7" stroke="none" fill="black" />  
<circle cx="914.791641" cy="902.391710" r="7" stroke="none" fill="black" />  
</svg>
