<?xml version="1.0" standalone="no"?>
<!DOCTYPE svg PUBLIC "-//W3C//DTD SVG 1.1//EN"
"http://www.w3.org/Graphics/SVG/1.1/DTD/svg11.dtd"> 
<svg width="12cm" height="12cm" viewBox="0 0 1024 1024"
xmlns="http://www.w3.org/2000/svg" version="1.1"> 
<defs>
<marker id="arrowhead" markerWidth="10" markerHeight="7"
refX="0" refY="3.5" orient="auto">
<polygon points="0 0, 10 3.5, 0 7" stroke="#f00" fill="red"/>
</marker>
</defs>
<line x1="100.000000" y1="100.000000" x2="171.477798" y2="391.360472" stroke="#f00"
stroke-width="3" marker-end="url(#arrowhead)" />
<defs>
<marker id="arrowhead" markerWidth="10" markerHeight="7"
refX="0" refY="3.5" orient="auto">
<polygon points="0 0, 10 3.5, 0 7" stroke="#f00" fill="red"/>
</marker>
</defs>
<line x1="914.791641" y1="902.391709" x2="797.328464" y2="626.343884" stroke="#f00"
stroke-width="3" marker-end="url(#arrowhead)" />
<line x1="100.000000" y1="100.000000" x2="105.978525" y2="124.321787" style="stroke:rgb(0,0,0);stroke-width:3" />  
<line x1="105.978525" y1="124.321787" x2="112.038816" y2="148.685630" style="stroke:rgb(0,0,0);stroke-width:3" />  
<line x1="112.038816" y1="148.685630" x2="118.236628" y2="173.020212" style="stroke:rgb(0,0,0);stroke-width:3" />  
<line x1="118.236628" y1="173.020212" x2="124.629226" y2="197.252286" style="stroke:rgb(0,0,0);stroke-width:3" />  
<line x1="124.629226" y1="197.252286" x2="131.305934" y2="221.414238" style="stroke:rgb(0,0,0);stroke-width:3" />  
<line x1="131.305934" y1="221.414238" x2="138.331327" y2="245.423470" style="stroke:rgb(0,0,0);stroke-width:3" />  
<line x1="138.331327" y1="245.423470" x2="145.806842" y2="269.296878" style="stroke:rgb(0,0,0);stroke-width:3" />  
<line x1="145.806842" y1="269.296878" x2="153.845187" y2="293.036940" style="stroke:rgb(0,0,0);stroke-width:3" />  
<line x1="153.845187" y1="293.036940" x2="162.535526" y2="316.529603" style="stroke:rgb(0,0,0);stroke-width:3" />  
<line x1="162.535526" y1="316.529603" x2="172.014999" y2="339.746094" style="stroke:rgb(0,0,0);stroke-width:3" />  
<line x1="172.014999" y1="339.746094" x2="182.396748" y2="362.541690" style="stroke:rgb(0,0,0);stroke-width:3" />  
<line x1="182.396748" y1="362.541690" x2="193.851250" y2="384.844974" style="stroke:rgb(0,0,0);stroke-width:3" />  
<line x1="193.851250" y1="384.844974" x2="206.523984" y2="406.469859" style="stroke:rgb(0,0,0);stroke-width:3" />  
<line x1="206.523984" y1="406.469859" x2="220.574160" y2="427.212695" style="stroke:rgb(0,0,0);stroke-width:3" />  
<line x1="220.574160" y1="427.212695" x2="236.175441" y2="446.851344" style="stroke:rgb(0,0,0);stroke-width:3" />  
<line x1="236.175441" y1="446.851344" x2="253.385699" y2="465.018483" style="stroke:rgb(0,0,0);stroke-width:3" />  
<line x1="253.385699" y1="465.018483" x2="272.303877" y2="481.440904" style="stroke:rgb(0,0,0);stroke-width:3" />  
<line x1="272.303877" y1="481.440904" x2="292.859968" y2="495.768216" style="stroke:rgb(0,0,0);stroke-width:3" />  
<line x1="292.859968" y1="495.768216" x2="314.813524" y2="507.721996" style="stroke:rgb(0,0,0);stroke-width:3" />  
<line x1="314.813524" y1="507.721996" x2="337.909477" y2="517.489165" style="stroke:rgb(0,0,0);stroke-width:3" />  
<line x1="337.909477" y1="517.489165" x2="361.677214" y2="525.388820" style="stroke:rgb(0,0,0);stroke-width:3" />  
<line x1="361.677214" y1="525.388820" x2="385.929581" y2="531.816057" style="stroke:rgb(0,0,0);stroke-width:3" />  
<line x1="385.929581" y1="531.816057" x2="410.423316" y2="537.089691" style="stroke:rgb(0,0,0);stroke-width:3" />  
<line x1="410.423316" y1="537.089691" x2="435.042972" y2="541.511019" style="stroke:rgb(0,0,0);stroke-width:3" />  
<line x1="435.042972" y1="541.511019" x2="459.807088" y2="545.357144" style="stroke:rgb(0,0,0);stroke-width:3" />  
<line x1="459.807088" y1="545.357144" x2="484.656344" y2="548.858063" style="stroke:rgb(0,0,0);stroke-width:3" />  
<line x1="484.656344" y1="548.858063" x2="509.439126" y2="552.214343" style="stroke:rgb(0,0,0);stroke-width:3" />  
<line x1="509.439126" y1="552.214343" x2="534.219840" y2="555.646617" style="stroke:rgb(0,0,0);stroke-width:3" />  
<line x1="534.219840" y1="555.646617" x2="558.959387" y2="559.361643" style="stroke:rgb(0,0,0);stroke-width:3" />  
<line x1="558.959387" y1="559.361643" x2="583.612569" y2="563.575567" style="stroke:rgb(0,0,0);stroke-width:3" />  
<line x1="583.612569" y1="563.575567" x2="608.121840" y2="568.522283" style="stroke:rgb(0,0,0);stroke-width:3" />  
<line x1="608.121840" y1="568.522283" x2="632.410708" y2="574.462281" style="stroke:rgb(0,0,0);stroke-width:3" />  
<line x1="632.410708" y1="574.462281" x2="656.376572" y2="581.692247" style="stroke:rgb(0,0,0);stroke-width:3" />  
<line x1="656.376572" y1="581.692247" x2="679.793966" y2="590.518150" style="stroke:rgb(0,0,0);stroke-width:3" />  
<line x1="679.793966" y1="590.518150" x2="702.415505" y2="601.275321" style="stroke:rgb(0,0,0);stroke-width:3" />  
<line x1="702.415505" y1="601.275321" x2="723.882835" y2="614.132239" style="stroke:rgb(0,0,0);stroke-width:3" />  
<line x1="723.882835" y1="614.132239" x2="744.066197" y2="628.945376" style="stroke:rgb(0,0,0);stroke-width:3" />  
<line x1="744.066197" y1="628.945376" x2="762.912827" y2="645.465002" style="stroke:rgb(0,0,0);stroke-width:3" />  
<line x1="762.912827" y1="645.465002" x2="780.405679" y2="663.391474" style="stroke:rgb(0,0,0);stroke-width:3" />  
<line x1="780.405679" y1="663.391474" x2="796.616448" y2="682.462853" style="stroke:rgb(0,0,0);stroke-width:3" />  
<line x1="796.616448" y1="682.462853" x2="811.680941" y2="702.489334" style="stroke:rgb(0,0,0);stroke-width:3" />  
<line x1="811.680941" y1="702.489334" x2="825.671218" y2="723.208471" style="stroke:rgb(0,0,0);stroke-width:3" />  
<line x1="825.671218" y1="723.208471" x2="838.765275" y2="744.533232" style="stroke:rgb(0,0,0);stroke-width:3" />  
<line x1="838.765275" y1="744.533232" x2="851.071817" y2="766.311687" style="stroke:rgb(0,0,0);stroke-width:3" />  
<line x1="851.071817" y1="766.311687" x2="862.739681" y2="788.497559" style="stroke:rgb(0,0,0);stroke-width:3" />  
<line x1="862.739681" y1="788.497559" x2="873.857251" y2="810.967320" style="stroke:rgb(0,0,0);stroke-width:3" />  
<line x1="873.857251" y1="810.967320" x2="884.507378" y2="833.605176" style="stroke:rgb(0,0,0);stroke-width:3" />  
<line x1="884.507378" y1="833.605176" x2="894.811895" y2="856.402590" style="stroke:rgb(0,0,0);stroke-width:3" />  
<line x1="894.811895" y1="856.402590" x2="904.884748" y2="879.362045" style="stroke:rgb(0,0,0);stroke-width:3" />  
<line x1="904.884748" y1="879.362045" x2="914.791641" y2="902.391709" style="stroke:rgb(0,0,0);stroke-width:3" />  
<circle cx="100.000000" cy="100.000000" r="7" stroke="none" fill="black" />  
<circle cx="105.978525" cy="124.321787" r="7" stroke="none" fill="black" />  
<circle cx="112.038816" cy="148.685630" r="7" stroke="none" fill="black" />  
<circle cx="118.236628" cy="173.020212" r="7" stroke="none" fill="black" />  
<circle cx="124.629226" cy="197.252286" r="7" stroke="none" fill="black" />  
<circle cx="131.305934" cy="221.414238" r="7" stroke="none" fill="black" />  
<circle cx="138.331327" cy="245.423470" r="7" stroke="none" fill="black" />  
<circle cx="145.806842" cy="269.296878" r="7" stroke="none" fill="black" />  
<circle cx="153.845187" cy="293.036940" r="7" stroke="none" fill="black" />  
<circle cx="162.535526" cy="316.529603" r="7" stroke="none" fill="black" />  
<circle cx="172.014999" cy="339.746094" r="7" stroke="none" fill="black" />  
<circle cx="182.396748" cy="362.541690" r="7" stroke="none" fill="black" />  
<circle cx="193.851250" cy="384.844974" r="7" stroke="none" fill="black" />  
<circle cx="206.523984" cy="406.469859" r="7" stroke="none" fill="black" />  
<circle cx="220.574160" cy="427.212695" r="7" stroke="none" fill="black" />  
<circle cx="236.175441" cy="446.851344" r="7" stroke="none" fill="black" />  
<circle cx="253.385699" cy="465.018483" r="7" stroke="none" fill="black" />  
<circle cx="272.303877" cy="481.440904" r="7" stroke="none" fill="black" />  
<circle cx="292.859968" cy="495.768216" r="7" stroke="none" fill="black" />  
<circle cx="314.813524" cy="507.721996" r="7" stroke="none" fill="black" />  
<circle cx="337.909477" cy="517.489165" r="7" stroke="none" fill="black" />  
<circle cx="361.677214" cy="525.388820" r="7" stroke="none" fill="black" />  
<circle cx="385.929581" cy="531.816057" r="7" stroke="none" fill="black" />  
<circle cx="410.423316" cy="537.089691" r="7" stroke="none" fill="black" />  
<circle cx="435.042972" cy="541.511019" r="7" stroke="none" fill="black" />  
<circle cx="459.807088" cy="545.357144" r="7" stroke="none" fill="black" />  
<circle cx="484.656344" cy="548.858063" r="7" stroke="none" fill="black" />  
<circle cx="509.439126" cy="552.214343" r="7" stroke="none" fill="black" />  
<circle cx="534.219840" cy="555.646617" r="7" stroke="none" fill="black" />  
<circle cx="558.959387" cy="559.361643" r="7" stroke="none" fill="black" />  
<circle cx="583.612569" cy="563.575567" r="7" stroke="none" fill="black" />  
<circle cx="608.121840" cy="568.522283" r="7" stroke="none" fill="black" />  
<circle cx="632.410708" cy="574.462281" r="7" stroke="none" fill="black" />  
<circle cx="656.376572" cy="581.692247" r="7" stroke="none" fill="black" />  
<circle cx="679.793966" cy="590.518150" r="7" stroke="none" fill="black" />  
<circle cx="702.415505" cy="601.275321" r="7" stroke="none" fill="black" />  
<circle cx="723.882835" cy="614.132239" r="7" stroke="none" fill="black" />  
<circle cx="744.066197" cy="628.945376" r="7" stroke="none" fill="black" />  
<circle cx="762.912827" cy="645.465002" r="7" stroke="none" fill="black" />  
<circle cx="780.405679" cy="663.391474" r="7" stroke="none" fill="black" />  
<circle cx="796.616448" cy="682.462853" r="7" stroke="none" fill="black" />  
<circle cx="811.680941" cy="702.489334" r="7" stroke="none" fill="black" />  
<circle cx="825.671218" cy="723.208471" r="7" stroke="none" fill="black" />  
<circle cx="838.765275" cy="744.533232" r="7" stroke="none" fill="black" />  
<circle cx="851.071817" cy="766.311687" r="7" stroke="none" fill="black" />  
<circle cx="862.739681" cy="788.497559" r="7" stroke="none" fill="black" />  
<circle cx="873.857251" cy="810.967320" r="7" stroke="none" fill="black" />  
<circle cx="884.507378" cy="833.605176" r="7" stroke="none" fill="black" />  
<circle cx="894.811895" cy="856.402590" r="7" stroke="none" fill="black" />  
<circle cx="904.884748" cy="879.362045" r="7" stroke="none" fill="black" />  
<circle cx="914.791641" cy="902.391709" r="7" stroke="none" fill="black" />  
</svg>
