<?xml version="1.0" standalone="no"?>
<!DOCTYPE svg PUBLIC "-//W3C//DTD SVG 1.1//EN"
"http://www.w3.org/Graphics/SVG/1.1/DTD/svg11.dtd"> 
<svg width="12cm" height="12cm" viewBox="0 0 1024 1024"
xmlns="http://www.w3.org/2000/svg" version="1.1"> 
<defs>
<marker id="arrowhead" markerWidth="10" markerHeight="7"
refX="0" refY="3.5" orient="auto">
<polygon points="0 0, 10 3.5, 0 7" stroke="#f00" fill="red"/>
</marker>
</defs>
<line x1="100.000000" y1="100.000000" x2="171.477793" y2="391.360473" stroke="#f00"
stroke-width="3" marker-end="url(#arrowhead)" />
<defs>
<marker id="arrowhead" markerWidth="10" markerHeight="7"
refX="0" refY="3.5" orient="auto">
<polygon points="0 0, 10 3.5, 0 7" stroke="#f00" fill="red"/>
</marker>
</defs>
<line x1="914.791641" y1="902.391709" x2="797.328466" y2="626.343883" stroke="#f00"
stroke-width="3" marker-end="url(#arrowhead)" />
<line x1="100.000000" y1="100.000000" x2="105.978524" y2="124.321787" style="stroke:rgb(0,0,0);stroke-width:3" />  
<line x1="105.978524" y1="124.321787" x2="112.038815" y2="148.685631" style="stroke:rgb(0,0,0);stroke-width:3" />  
<line x1="112.038815" y1="148.685631" x2="118.236627" y2="173.020214" style="stroke:rgb(0,0,0);stroke-width:3" />  
<line x1="118.236627" y1="173.020214" x2="124.629225" y2="197.252288" style="stroke:rgb(0,0,0);stroke-width:3" />  
<line x1="124.629225" y1="197.252288" x2="131.305933" y2="221.414241" style="stroke:rgb(0,0,0);stroke-width:3" />  
<line x1="131.305933" y1="221.414241" x2="138.331326" y2="245.423473" style="stroke:rgb(0,0,0);stroke-width:3" />  
<line x1="138.331326" y1="245.423473" x2="145.806840" y2="269.296882" style="stroke:rgb(0,0,0);stroke-width:3" />  
<line x1="145.806840" y1="269.296882" x2="153.845185" y2="293.036944" style="stroke:rgb(0,0,0);stroke-width:3" />  
<line x1="153.845185" y1="293.036944" x2="162.535524" y2="316.529608" style="stroke:rgb(0,0,0);stroke-width:3" />  
<line x1="162.535524" y1="316.529608" x2="172.014997" y2="339.746099" style="stroke:rgb(0,0,0);stroke-width:3" />  
<line x1="172.014997" y1="339.746099" x2="182.396746" y2="362.541695" style="stroke:rgb(0,0,0);stroke-width:3" />  
<line x1="182.396746" y1="362.541695" x2="193.851248" y2="384.844979" style="stroke:rgb(0,0,0);stroke-width:3" />  
<line x1="193.851248" y1="384.844979" x2="206.523982" y2="406.469864" style="stroke:rgb(0,0,0);stroke-width:3" />  
<line x1="206.523982" y1="406.469864" x2="220.574158" y2="427.212700" style="stroke:rgb(0,0,0);stroke-width:3" />  
<line x1="220.574158" y1="427.212700" x2="236.175439" y2="446.851348" style="stroke:rgb(0,0,0);stroke-width:3" />  
<line x1="236.175439" y1="446.851348" x2="253.385698" y2="465.018486" style="stroke:rgb(0,0,0);stroke-width:3" />  
<line x1="253.385698" y1="465.018486" x2="272.303877" y2="481.440906" style="stroke:rgb(0,0,0);stroke-width:3" />  
<line x1="272.303877" y1="481.440906" x2="292.859967" y2="495.768216" style="stroke:rgb(0,0,0);stroke-width:3" />  
<line x1="292.859967" y1="495.768216" x2="314.813523" y2="507.721997" style="stroke:rgb(0,0,0);stroke-width:3" />  
<line x1="314.813523" y1="507.721997" x2="337.909476" y2="517.489166" style="stroke:rgb(0,0,0);stroke-width:3" />  
<line x1="337.909476" y1="517.489166" x2="361.677213" y2="525.388822" style="stroke:rgb(0,0,0);stroke-width:3" />  
<line x1="361.677213" y1="525.388822" x2="385.929580" y2="531.816060" style="stroke:rgb(0,0,0);stroke-width:3" />  
<line x1="385.929580" y1="531.816060" x2="410.423314" y2="537.089694" style="stroke:rgb(0,0,0);stroke-width:3" />  
<line x1="410.423314" y1="537.089694" x2="435.042971" y2="541.511022" style="stroke:rgb(0,0,0);stroke-width:3" />  
<line x1="435.042971" y1="541.511022" x2="459.807086" y2="545.357147" style="stroke:rgb(0,0,0);stroke-width:3" />  
<line x1="459.807086" y1="545.357147" x2="484.656343" y2="548.858066" style="stroke:rgb(0,0,0);stroke-width:3" />  
<line x1="484.656343" y1="548.858066" x2="509.439125" y2="552.214345" style="stroke:rgb(0,0,0);stroke-width:3" />  
<line x1="509.439125" y1="552.214345" x2="534.219839" y2="555.646619" style="stroke:rgb(0,0,0);stroke-width:3" />  
<line x1="534.219839" y1="555.646619" x2="558.959386" y2="559.361645" style="stroke:rgb(0,0,0);stroke-width:3" />  
<line x1="558.959386" y1="559.361645" x2="583.612568" y2="563.575569" style="stroke:rgb(0,0,0);stroke-width:3" />  
<line x1="583.612568" y1="563.575569" x2="608.121840" y2="568.522285" style="stroke:rgb(0,0,0);stroke-width:3" />  
<line x1="608.121840" y1="568.522285" x2="632.410707" y2="574.462282" style="stroke:rgb(0,0,0);stroke-width:3" />  
<line x1="632.410707" y1="574.462282" x2="656.376572" y2="581.692248" style="stroke:rgb(0,0,0);stroke-width:3" />  
<line x1="656.376572" y1="581.692248" x2="679.793966" y2="590.518151" style="stroke:rgb(0,0,0);stroke-width:3" />  
<line x1="679.793966" y1="590.518151" x2="702.415505" y2="601.275321" style="stroke:rgb(0,0,0);stroke-width:3" />  
<line x1="702.415505" y1="601.275321" x2="723.882835" y2="614.132238" style="stroke:rgb(0,0,0);stroke-width:3" />  
<line x1="723.882835" y1="614.132238" x2="744.066197" y2="628.945375" style="stroke:rgb(0,0,0);stroke-width:3" />  
<line x1="744.066197" y1="628.945375" x2="762.912828" y2="645.465001" style="stroke:rgb(0,0,0);stroke-width:3" />  
<line x1="762.912828" y1="645.465001" x2="780.405679" y2="663.391473" style="stroke:rgb(0,0,0);stroke-width:3" />  
<line x1="780.405679" y1="663.391473" x2="796.616448" y2="682.462852" style="stroke:rgb(0,0,0);stroke-width:3" />  
<line x1="796.616448" y1="682.462852" x2="811.680941" y2="702.489333" style="stroke:rgb(0,0,0);stroke-width:3" />  
<line x1="811.680941" y1="702.489333" x2="825.671218" y2="723.208470" style="stroke:rgb(0,0,0);stroke-width:3" />  
<line x1="825.671218" y1="723.208470" x2="838.765275" y2="744.533231" style="stroke:rgb(0,0,0);stroke-width:3" />  
<line x1="838.765275" y1="744.533231" x2="851.071817" y2="766.311686" style="stroke:rgb(0,0,0);stroke-width:3" />  
<line x1="851.071817" y1="766.311686" x2="862.739681" y2="788.497559" style="stroke:rgb(0,0,0);stroke-width:3" />  
<line x1="862.739681" y1="788.497559" x2="873.857251" y2="810.967319" style="stroke:rgb(0,0,0);stroke-width:3" />  
<line x1="873.857251" y1="810.967319" x2="884.507378" y2="833.605176" style="stroke:rgb(0,0,0);stroke-width:3" />  
<line x1="884.507378" y1="833.605176" x2="894.811896" y2="856.402589" style="stroke:rgb(0,0,0);stroke-width:3" />  
<line x1="894.811896" y1="856.402589" x2="904.884748" y2="879.362044" style="stroke:rgb(0,0,0);stroke-width:3" />  
<line x1="904.884748" y1="879.362044" x2="914.791641" y2="902.391709" style="stroke:rgb(0,0,0);stroke-width:3" />  
<circle cx="100.000000" cy="100.000000" r="7" stroke="none" fill="black" />  
<circle cx="105.978524" cy="124.321787" r="7" stroke="none" fill="black" />  
<circle cx="112.038815" cy="148.685631" r="7" stroke="none" fill="black" />  
<circle cx="118.236627" cy="173.020214" r="7" stroke="none" fill="black" />  
<circle cx="124.629225" cy="197.252288" r="7" stroke="none" fill="black" />  
<circle cx="131.305933" cy="221.414241" r="7" stroke="none" fill="black" />  
<circle cx="138.331326" cy="245.423473" r="7" stroke="none" fill="black" />  
<circle cx="145.806840" cy="269.296882" r="7" stroke="none" fill="black" />  
<circle cx="153.845185" cy="293.036944" r="7" stroke="none" fill="black" />  
<circle cx="162.535524" cy="316.529608" r="7" stroke="none" fill="black" />  
<circle cx="172.014997" cy="339.746099" r="7" stroke="none" fill="black" />  
<circle cx="182.396746" cy="362.541695" r="7" stroke="none" fill="black" />  
<circle cx="193.851248" cy="384.844979" r="7" stroke="none" fill="black" />  
<circle cx="206.523982" cy="406.469864" r="7" stroke="none" fill="black" />  
<circle cx="220.574158" cy="427.212700" r="7" stroke="none" fill="black" />  
<circle cx="236.175439" cy="446.851348" r="7" stroke="none" fill="black" />  
<circle cx="253.385698" cy="465.018486" r="7" stroke="none" fill="black" />  
<circle cx="272.303877" cy="481.440906" r="7" stroke="none" fill="black" />  
<circle cx="292.859967" cy="495.768216" r="7" stroke="none" fill="black" />  
<circle cx="314.813523" cy="507.721997" r="7" stroke="none" fill="black" />  
<circle cx="337.909476" cy="517.489166" r="7" stroke="none" fill="black" />  
<circle cx="361.677213" cy="525.388822" r="7" stroke="none" fill="black" />  
<circle cx="385.929580" cy="531.816060" r="7" stroke="none" fill="black" />  
<circle cx="410.423314" cy="537.089694" r="7" stroke="none" fill="black" />  
<circle cx="435.042971" cy="541.511022" r="7" stroke="none" fill="black" />  
<circle cx="459.807086" cy="545.357147" r="7" stroke="none" fill="black" />  
<circle cx="484.656343" cy="548.858066" r="7" stroke="none" fill="black" />  
<circle cx="509.439125" cy="552.214345" r="7" stroke="none" fill="black" />  
<circle cx="534.219839" cy="555.646619" r="7" stroke="none" fill="black" />  
<circle cx="558.959386" cy="559.361645" r="7" stroke="none" fill="black" />  
<circle cx="583.612568" cy="563.575569" r="7" stroke="none" fill="black" />  
<circle cx="608.121840" cy="568.522285" r="7" stroke="none" fill="black" />  
<circle cx="632.410707" cy="574.462282" r="7" stroke="none" fill="black" />  
<circle cx="656.376572" cy="581.692248" r="7" stroke="none" fill="black" />  
<circle cx="679.793966" cy="590.518151" r="7" stroke="none" fill="black" />  
<circle cx="702.415505" cy="601.275321" r="7" stroke="none" fill="black" />  
<circle cx="723.882835" cy="614.132238" r="7" stroke="none" fill="black" />  
<circle cx="744.066197" cy="628.945375" r="7" stroke="none" fill="black" />  
<circle cx="762.912828" cy="645.465001" r="7" stroke="none" fill="black" />  
<circle cx="780.405679" cy="663.391473" r="7" stroke="none" fill="black" />  
<circle cx="796.616448" cy="682.462852" r="7" stroke="none" fill="black" />  
<circle cx="811.680941" cy="702.489333" r="7" stroke="none" fill="black" />  
<circle cx="825.671218" cy="723.208470" r="7" stroke="none" fill="black" />  
<circle cx="838.765275" cy="744.533231" r="7" stroke="none" fill="black" />  
<circle cx="851.071817" cy="766.311686" r="7" stroke="none" fill="black" />  
<circle cx="862.739681" cy="788.497559" r="7" stroke="none" fill="black" />  
<circle cx="873.857251" cy="810.967319" r="7" stroke="none" fill="black" />  
<circle cx="884.507378" cy="833.605176" r="7" stroke="none" fill="black" />  
<circle cx="894.811896" cy="856.402589" r="7" stroke="none" fill="black" />  
<circle cx="904.884748" cy="879.362044" r="7" stroke="none" fill="black" />  
<circle cx="914.791641" cy="902.391709" r="7" stroke="none" fill="black" />  
</svg>
