<?xml version="1.0" standalone="no"?>
<!DOCTYPE svg PUBLIC "-//W3C//DTD SVG 1.1//EN"
"http://www.w3.org/Graphics/SVG/1.1/DTD/svg11.dtd"> 
<svg width="12cm" height="12cm" viewBox="0 0 1024 1024"
xmlns="http://www.w3.org/2000/svg" version="1.1"> 
<line x1="100.000000" y1="100.000000" x2="111.180340" y2="122.360680" style="stroke:rgb(0,0,0);stroke-width:3" />  
<line x1="111.180340" y1="122.360680" x2="122.360680" y2="144.721360" style="stroke:rgb(0,0,0);stroke-width:3" />  
<line x1="122.360680" y1="144.721360" x2="133.585741" y2="167.171482" style="stroke:rgb(0,0,0);stroke-width:3" />  
<line x1="133.585741" y1="167.171482" x2="144.810802" y2="189.621605" style="stroke:rgb(0,0,0);stroke-width:3" />  
<line x1="144.810802" y1="189.621605" x2="156.035864" y2="212.071727" style="stroke:rgb(0,0,0);stroke-width:3" />  
<line x1="156.035864" y1="212.071727" x2="167.260925" y2="234.521850" style="stroke:rgb(0,0,0);stroke-width:3" />  
<line x1="167.260925" y1="234.521850" x2="178.485986" y2="256.971972" style="stroke:rgb(0,0,0);stroke-width:3" />  
<line x1="178.485986" y1="256.971972" x2="189.711047" y2="279.422095" style="stroke:rgb(0,0,0);stroke-width:3" />  
<line x1="189.711047" y1="279.422095" x2="200.936109" y2="301.872217" style="stroke:rgb(0,0,0);stroke-width:3" />  
<line x1="200.936109" y1="301.872217" x2="212.161170" y2="324.322340" style="stroke:rgb(0,0,0);stroke-width:3" />  
<line x1="212.161170" y1="324.322340" x2="223.341510" y2="346.683019" style="stroke:rgb(0,0,0);stroke-width:3" />  
<line x1="223.341510" y1="346.683019" x2="234.521850" y2="369.043699" style="stroke:rgb(0,0,0);stroke-width:3" />  
<line x1="234.521850" y1="369.043699" x2="245.702189" y2="391.404379" style="stroke:rgb(0,0,0);stroke-width:3" />  
<line x1="245.702189" y1="391.404379" x2="256.882529" y2="413.765059" style="stroke:rgb(0,0,0);stroke-width:3" />  
<line x1="256.882529" y1="413.765059" x2="268.062869" y2="436.125738" style="stroke:rgb(0,0,0);stroke-width:3" />  
<line x1="268.062869" y1="436.125738" x2="279.243209" y2="458.486418" style="stroke:rgb(0,0,0);stroke-width:3" />  
<line x1="279.243209" y1="458.486418" x2="290.423549" y2="480.847098" style="stroke:rgb(0,0,0);stroke-width:3" />  
<line x1="290.423549" y1="480.847098" x2="303.576338" y2="500.894084" style="stroke:rgb(0,0,0);stroke-width:3" />  
<line x1="303.576338" y1="500.894084" x2="327.829900" y2="506.957475" style="stroke:rgb(0,0,0);stroke-width:3" />  
<line x1="327.829900" y1="506.957475" x2="352.083463" y2="513.020866" style="stroke:rgb(0,0,0);stroke-width:3" />  
<line x1="352.083463" y1="513.020866" x2="376.337025" y2="519.084256" style="stroke:rgb(0,0,0);stroke-width:3" />  
<line x1="376.337025" y1="519.084256" x2="400.590588" y2="525.147647" style="stroke:rgb(0,0,0);stroke-width:3" />  
<line x1="400.590588" y1="525.147647" x2="424.844150" y2="531.211038" style="stroke:rgb(0,0,0);stroke-width:3" />  
<line x1="424.844150" y1="531.211038" x2="449.097713" y2="537.274428" style="stroke:rgb(0,0,0);stroke-width:3" />  
<line x1="449.097713" y1="537.274428" x2="473.351275" y2="543.337819" style="stroke:rgb(0,0,0);stroke-width:3" />  
<line x1="473.351275" y1="543.337819" x2="497.604838" y2="549.401209" style="stroke:rgb(0,0,0);stroke-width:3" />  
<line x1="497.604838" y1="549.401209" x2="521.858400" y2="555.464600" style="stroke:rgb(0,0,0);stroke-width:3" />  
<line x1="521.858400" y1="555.464600" x2="546.111963" y2="561.527991" style="stroke:rgb(0,0,0);stroke-width:3" />  
<line x1="546.111963" y1="561.527991" x2="570.365525" y2="567.591381" style="stroke:rgb(0,0,0);stroke-width:3" />  
<line x1="570.365525" y1="567.591381" x2="594.619088" y2="573.654772" style="stroke:rgb(0,0,0);stroke-width:3" />  
<line x1="594.619088" y1="573.654772" x2="618.872650" y2="579.718163" style="stroke:rgb(0,0,0);stroke-width:3" />  
<line x1="618.872650" y1="579.718163" x2="643.126213" y2="585.781553" style="stroke:rgb(0,0,0);stroke-width:3" />  
<line x1="643.126213" y1="585.781553" x2="667.379775" y2="591.844944" style="stroke:rgb(0,0,0);stroke-width:3" />  
<line x1="667.379775" y1="591.844944" x2="691.633338" y2="597.908334" style="stroke:rgb(0,0,0);stroke-width:3" />  
<line x1="691.633338" y1="597.908334" x2="709.369511" y2="613.552329" style="stroke:rgb(0,0,0);stroke-width:3" />  
<line x1="709.369511" y1="613.552329" x2="723.586556" y2="634.116269" style="stroke:rgb(0,0,0);stroke-width:3" />  
<line x1="723.586556" y1="634.116269" x2="737.803601" y2="654.680209" style="stroke:rgb(0,0,0);stroke-width:3" />  
<line x1="737.803601" y1="654.680209" x2="752.020646" y2="675.244149" style="stroke:rgb(0,0,0);stroke-width:3" />  
<line x1="752.020646" y1="675.244149" x2="766.237691" y2="695.808089" style="stroke:rgb(0,0,0);stroke-width:3" />  
<line x1="766.237691" y1="695.808089" x2="780.454736" y2="716.372029" style="stroke:rgb(0,0,0);stroke-width:3" />  
<line x1="780.454736" y1="716.372029" x2="794.671781" y2="736.935970" style="stroke:rgb(0,0,0);stroke-width:3" />  
<line x1="794.671781" y1="736.935970" x2="808.945695" y2="757.582165" style="stroke:rgb(0,0,0);stroke-width:3" />  
<line x1="808.945695" y1="757.582165" x2="823.219608" y2="778.228361" style="stroke:rgb(0,0,0);stroke-width:3" />  
<line x1="823.219608" y1="778.228361" x2="837.493521" y2="798.874557" style="stroke:rgb(0,0,0);stroke-width:3" />  
<line x1="837.493521" y1="798.874557" x2="851.767434" y2="819.520753" style="stroke:rgb(0,0,0);stroke-width:3" />  
<line x1="851.767434" y1="819.520753" x2="866.041347" y2="840.166949" style="stroke:rgb(0,0,0);stroke-width:3" />  
<line x1="866.041347" y1="840.166949" x2="880.315260" y2="860.813145" style="stroke:rgb(0,0,0);stroke-width:3" />  
<line x1="880.315260" y1="860.813145" x2="894.589174" y2="881.459340" style="stroke:rgb(0,0,0);stroke-width:3" />  
<line x1="894.589174" y1="881.459340" x2="908.863087" y2="902.105536" style="stroke:rgb(0,0,0);stroke-width:3" />  
<line x1="908.863087" y1="902.105536" x2="923.137000" y2="922.751732" style="stroke:rgb(0,0,0);stroke-width:3" />  
<circle cx="100.000000" cy="100.000000" r="7" stroke="none" fill="black" />  
<circle cx="111.180340" cy="122.360680" r="7" stroke="none" fill="black" />  
<circle cx="122.360680" cy="144.721360" r="7" stroke="none" fill="black" />  
<circle cx="133.585741" cy="167.171482" r="7" stroke="none" fill="black" />  
<circle cx="144.810802" cy="189.621605" r="7" stroke="none" fill="black" />  
<circle cx="156.035864" cy="212.071727" r="7" stroke="none" fill="black" />  
<circle cx="167.260925" cy="234.521850" r="7" stroke="none" fill="black" />  
<circle cx="178.485986" cy="256.971972" r="7" stroke="none" fill="black" />  
<circle cx="189.711047" cy="279.422095" r="7" stroke="none" fill="black" />  
<circle cx="200.936109" cy="301.872217" r="7" stroke="none" fill="black" />  
<circle cx="212.161170" cy="324.322340" r="7" stroke="none" fill="black" />  
<circle cx="223.341510" cy="346.683019" r="7" stroke="none" fill="black" />  
<circle cx="234.521850" cy="369.043699" r="7" stroke="none" fill="black" />  
<circle cx="245.702189" cy="391.404379" r="7" stroke="none" fill="black" />  
<circle cx="256.882529" cy="413.765059" r="7" stroke="none" fill="black" />  
<circle cx="268.062869" cy="436.125738" r="7" stroke="none" fill="black" />  
<circle cx="279.243209" cy="458.486418" r="7" stroke="none" fill="black" />  
<circle cx="290.423549" cy="480.847098" r="7" stroke="none" fill="black" />  
<circle cx="303.576338" cy="500.894084" r="7" stroke="none" fill="black" />  
<circle cx="327.829900" cy="506.957475" r="7" stroke="none" fill="black" />  
<circle cx="352.083463" cy="513.020866" r="7" stroke="none" fill="black" />  
<circle cx="376.337025" cy="519.084256" r="7" stroke="none" fill="black" />  
<circle cx="400.590588" cy="525.147647" r="7" stroke="none" fill="black" />  
<circle cx="424.844150" cy="531.211038" r="7" stroke="none" fill="black" />  
<circle cx="449.097713" cy="537.274428" r="7" stroke="none" fill="black" />  
<circle cx="473.351275" cy="543.337819" r="7" stroke="none" fill="black" />  
<circle cx="497.604838" cy="549.401209" r="7" stroke="none" fill="black" />  
<circle cx="521.858400" cy="555.464600" r="7" stroke="none" fill="black" />  
<circle cx="546.111963" cy="561.527991" r="7" stroke="none" fill="black" />  
<circle cx="570.365525" cy="567.591381" r="7" stroke="none" fill="black" />  
<circle cx="594.619088" cy="573.654772" r="7" stroke="none" fill="black" />  
<circle cx="618.872650" cy="579.718163" r="7" stroke="none" fill="black" />  
<circle cx="643.126213" cy="585.781553" r="7" stroke="none" fill="black" />  
<circle cx="667.379775" cy="591.844944" r="7" stroke="none" fill="black" />  
<circle cx="691.633338" cy="597.908334" r="7" stroke="none" fill="black" />  
<circle cx="709.369511" cy="613.552329" r="7" stroke="none" fill="black" />  
<circle cx="723.586556" cy="634.116269" r="7" stroke="none" fill="black" />  
<circle cx="737.803601" cy="654.680209" r="7" stroke="none" fill="black" />  
<circle cx="752.020646" cy="675.244149" r="7" stroke="none" fill="black" />  
<circle cx="766.237691" cy="695.808089" r="7" stroke="none" fill="black" />  
<circle cx="780.454736" cy="716.372029" r="7" stroke="none" fill="black" />  
<circle cx="794.671781" cy="736.935970" r="7" stroke="none" fill="black" />  
<circle cx="808.945695" cy="757.582165" r="7" stroke="none" fill="black" />  
<circle cx="823.219608" cy="778.228361" r="7" stroke="none" fill="black" />  
<circle cx="837.493521" cy="798.874557" r="7" stroke="none" fill="black" />  
<circle cx="851.767434" cy="819.520753" r="7" stroke="none" fill="black" />  
<circle cx="866.041347" cy="840.166949" r="7" stroke="none" fill="black" />  
<circle cx="880.315260" cy="860.813145" r="7" stroke="none" fill="black" />  
<circle cx="894.589174" cy="881.459340" r="7" stroke="none" fill="black" />  
<circle cx="908.863087" cy="902.105536" r="7" stroke="none" fill="black" />  
<circle cx="923.137000" cy="922.751732" r="7" stroke="none" fill="black" />  
</svg>
